<svg xmlns="http://www.w3.org/2000/svg" width="103" height="183" fill="none" viewBox="0 0 103 183"><path fill="#ffcab9" d="M79.927 230.242v-82.813c9.97-3.783 17.061-13.437 17.061-24.756V77.654H4.75v45.019c0 11.319 7.09 20.973 17.06 24.756v82.813Z"/><path fill="#fabba7" d="M58.027 82.72c-5.375.994-10.537-2.568-11.529-7.956L35.774 16.478c-.99-5.387 2.563-10.56 7.938-11.554S54.248 7.492 55.24 12.88l10.725 58.286c.992 5.388-2.563 10.56-7.938 11.554"/><path fill="#fabba7" d="M69.508 81.874c-5.259-1.495-8.311-6.98-6.82-12.25l16.145-57.018c1.492-5.27 6.965-8.33 12.223-6.835 5.258 1.496 8.311 6.98 6.82 12.25L81.73 75.04c-1.491 5.271-6.964 8.331-12.223 6.835M14.647 88.009c-5.466 0-9.897-4.441-9.897-9.92v-9.46c0-5.478 4.43-9.92 9.897-9.92s9.897 4.442 9.897 9.92v9.46c0 5.479-4.43 9.92-9.897 9.92M34.442 88.008c-5.467 0-9.898-4.44-9.898-9.92V57.846c0-5.478 4.431-9.92 9.898-9.92s9.897 4.442 9.897 9.92v20.243c0 5.48-4.43 9.92-9.897 9.92"/><path fill="#ffcab9" d="M96.989 122.674V78.088c0-5.478-4.431-9.92-9.897-9.92H54.237c-5.467 0-9.898 4.442-9.898 9.92 0 5.48 4.43 9.92 9.897 9.92h22.958v14.849c-9.169 1.702-18.24 10.371-18.24 22.546"/><path fill="#000" d="M92.352 1.194C84.717-.978 76.409 3.736 74.267 11.307l-8.782 31.017-5.577-30.307C58.444 4.058 50.788-1.224 42.851.245c-7.941 1.468-13.21 9.137-11.745 17.096L35.87 43.24c-7.25-.707-14.382 4.58-15.795 11.763C10.783 51.066-.21 58.46.003 68.63v54.044c0 11.772 6.735 22.574 17.061 27.845v79.724A4.75 4.75 0 0 0 21.811 235a4.75 4.75 0 0 0 4.747-4.757v-82.814a4.76 4.76 0 0 0-3.066-4.449c-8.372-3.176-13.995-11.337-13.995-20.307V91.826c4.977 2 11.3.687 15.047-2.931 5.344 5.123 14.452 5.122 19.794 0a14.57 14.57 0 0 0 9.897 3.871h18.211v6.484c-9.421 3.451-18.24 12.947-18.24 26.153a4.75 4.75 0 0 0 4.747 4.758 4.75 4.75 0 0 0 4.747-4.758c0-9.874 7.397-16.576 14.359-17.868a4.754 4.754 0 0 0 3.882-4.678V88.008a4.75 4.75 0 0 0-4.747-4.758H54.236c-6.813-.253-6.83-10.063 0-10.324h32.855c2.84 0 5.15 2.316 5.15 5.162v44.585c0 8.97-5.624 17.13-13.994 20.307a4.76 4.76 0 0 0-3.066 4.449v25.194a4.75 4.75 0 0 0 4.747 4.757 4.75 4.75 0 0 0 4.747-4.757v-22.104c10.325-5.272 17.06-16.074 17.06-27.846V78.088c0-7.136-5.109-13.096-11.853-14.406l12.56-44.362c2.204-7.786-2.322-15.917-10.09-18.126M14.647 83.251c-2.84 0-5.15-2.316-5.15-5.163V68.63C9.757 61.79 19.54 61.794 19.797 68.63v9.46c.001 2.845-2.31 5.16-5.15 5.16m24.945-5.163C39.336 84.923 29.552 84.93 29.292 78.089V57.845C29.547 51.014 39.332 51.005 39.592 57.846Zm9.494-13.737v-6.505c0-2.92-.86-5.643-2.333-7.932l-6.31-34.298c-.516-2.8 1.337-5.496 4.13-6.013 2.792-.516 5.484 1.341 5.999 4.14l9.139 49.669h-5.475c-1.812 0-3.547.333-5.15.94M93.31 16.723 80.09 63.41H69.381L83.4 13.904q1.71-4.42 6.36-3.556c2.733.776 4.325 3.637 3.55 6.375"/></svg>